<?xml version="1.0" standalone="no"?>
<!DOCTYPE svg PUBLIC "-//W3C//DTD SVG 20010904//EN"
 "http://www.w3.org/TR/2001/REC-SVG-20010904/DTD/svg10.dtd">
<svg version="1.0" xmlns="http://www.w3.org/2000/svg"
 width="1486.000000pt" height="1124.000000pt" viewBox="0 0 1486.000000 1124.000000"
 preserveAspectRatio="xMidYMid meet">

<g transform="translate(0.000000,1124.000000) scale(0.100000,-0.100000)"
fill="#000000" stroke="none">
<path d="M0 8424 l0 -2817 116 7 c64 4 123 11 132 15 54 28 292 49 637 56 149
3 315 8 370 11 293 15 604 35 636 39 20 3 83 12 140 19 132 18 407 76 524 111
50 14 110 30 135 35 201 41 306 63 375 81 140 37 519 36 727 -1 29 -5 98 -17
153 -26 97 -16 179 -33 510 -109 182 -41 282 -64 440 -99 145 -32 456 -121
690 -197 214 -69 475 -132 670 -163 125 -20 221 -45 350 -91 294 -106 527
-215 680 -318 238 -160 360 -260 535 -438 183 -185 233 -222 378 -278 154 -61
407 -117 607 -137 39 -3 84 -8 100 -11 17 -3 107 -7 200 -10 178 -5 417 13
557 43 63 13 150 23 438 54 157 16 585 32 1110 40 384 7 516 12 590 25 52 9
138 22 190 30 52 7 124 18 160 24 36 6 117 16 180 21 63 6 126 12 140 15 107
16 273 36 342 41 46 3 89 7 97 10 7 2 273 11 590 19 317 8 594 17 616 19 22 2
74 7 115 11 41 3 125 12 185 20 61 8 157 19 215 25 58 6 133 16 167 21 l63 11
0 3354 0 3354 -7430 0 -7430 0 0 -2816z m11841 -586 c96 -45 160 -107 188
-182 34 -92 32 -96 -43 -96 l-65 0 -15 54 c-11 38 -27 64 -55 89 -56 51 -98
62 -232 62 -113 0 -118 -1 -184 -35 -92 -48 -128 -97 -133 -186 -10 -160 57
-220 357 -321 270 -90 375 -169 409 -305 23 -92 8 -209 -37 -282 -75 -121
-250 -195 -461 -196 -163 0 -249 35 -344 141 -55 61 -86 126 -93 197 l-6 52
65 0 66 0 7 -47 c12 -86 75 -167 154 -200 98 -41 290 -32 376 17 96 55 145
129 145 220 0 134 -70 196 -310 275 -186 61 -270 101 -345 162 -84 68 -118
133 -123 238 -5 108 21 179 92 250 109 109 185 136 377 132 132 -3 138 -4 210
-39z m-5800 -38 c11 -30 61 -170 111 -310 50 -140 108 -304 130 -365 21 -60
45 -128 53 -150 7 -22 30 -85 50 -140 20 -55 47 -131 60 -170 21 -64 24 -68
33 -45 10 25 215 608 344 974 39 110 75 216 80 234 9 31 10 32 68 32 47 0 60
-3 60 -15 0 -8 -18 -62 -40 -120 -22 -57 -58 -158 -79 -222 -22 -65 -85 -242
-141 -393 -55 -151 -121 -331 -146 -400 -24 -69 -55 -152 -67 -185 l-23 -60
-63 -3 c-35 -2 -68 1 -72 5 -8 8 -49 115 -124 323 -13 36 -67 182 -120 325
-53 143 -108 294 -122 335 -39 113 -57 164 -102 282 -23 58 -41 112 -41 118 0
7 22 10 66 8 l66 -3 19 -55z m1339 -640 l0 -700 -60 0 -60 0 0 700 0 700 60 0
60 0 0 -700z m1250 645 l0 -55 -217 -2 -218 -3 -3 -643 -2 -643 -60 3 -60 3
-4 270 c-2 149 -5 438 -5 643 l-1 373 -207 -1 c-115 -1 -216 -1 -225 -1 -15 1
-18 11 -18 56 l0 55 510 0 510 0 0 -55z m841 -190 c52 -132 156 -391 229 -575
74 -184 155 -389 182 -455 26 -65 48 -121 48 -122 0 -2 -31 -3 -69 -3 l-68 0
-72 179 c-39 98 -71 184 -71 190 0 8 -96 11 -351 9 l-352 -3 -71 -185 -71
-185 -63 -3 c-47 -2 -62 0 -62 11 0 7 97 256 216 552 118 297 228 576 244 620
16 44 41 111 57 148 l27 68 76 -3 75 -3 96 -240z m789 -395 l0 -640 350 0 351
0 -3 -57 -3 -58 -410 0 -410 0 -3 698 -2 697 65 0 65 0 0 -640z"/>
<path d="M9276 7688 c-10 -29 -31 -82 -46 -118 -15 -36 -44 -110 -65 -165 -92
-242 -108 -284 -136 -352 -16 -39 -29 -76 -29 -82 0 -8 92 -11 295 -11 162 0
295 2 295 4 0 13 -69 201 -145 396 -31 80 -68 174 -82 210 -48 127 -65 170
-67 170 -1 0 -10 -24 -20 -52z"/>
<path d="M647 5373 c-11 -10 -8 -53 3 -53 17 0 11 -64 -11 -111 -33 -69 -38
-73 -61 -44 -23 29 -56 33 -65 8 -8 -21 -53 -85 -68 -95 -5 -4 -16 -6 -22 -3
-7 2 -24 -7 -38 -21 -17 -17 -32 -23 -45 -19 -14 5 -20 2 -20 -9 0 -12 -10
-16 -40 -16 -22 0 -40 4 -40 9 0 4 -24 11 -53 14 -59 6 -107 25 -107 41 0 13
-51 46 -69 46 -8 0 -11 -512 -9 -1908 3 -1614 5 -1912 17 -1926 8 -9 11 -20 7
-23 -4 -4 -11 -1 -16 7 -6 9 -10 -227 -10 -627 l0 -643 3629 0 3629 0 -10 38
c-11 41 -11 48 -2 111 4 27 2 46 -5 50 -13 8 -18 110 -5 119 5 4 15 19 21 33
6 15 25 33 42 40 17 8 31 20 31 26 0 7 7 13 15 13 8 0 15 5 15 10 0 6 7 10 15
10 8 0 23 9 32 20 10 11 25 20 34 20 19 0 59 45 59 66 0 8 3 13 8 13 27 -4 44
5 57 32 9 17 14 33 12 36 -5 5 29 43 38 43 3 0 25 16 51 35 25 19 56 38 70 41
13 3 24 9 24 14 0 11 70 38 113 44 20 2 44 11 52 20 13 13 12 17 -10 34 -14
11 -25 25 -25 32 0 15 32 73 45 82 5 4 10 13 11 20 2 46 19 100 35 114 11 9
19 23 19 31 0 7 4 13 8 13 5 0 17 25 28 56 10 31 25 59 32 61 6 3 12 12 12 19
0 8 7 17 15 20 11 5 12 10 4 26 -6 11 -8 26 -5 34 8 20 -4 44 -21 44 -10 0
-12 6 -8 19 3 11 1 22 -5 26 -5 3 -10 21 -10 40 0 77 -21 128 -70 170 -26 22
-45 43 -43 48 2 4 -7 11 -21 17 -14 5 -28 20 -32 34 -3 14 -13 28 -22 31 -10
2 -33 34 -52 70 -19 36 -38 65 -41 65 -4 0 -9 13 -12 29 -4 16 -18 38 -32 48
-50 36 -203 191 -235 239 -19 27 -37 51 -42 52 -4 2 -8 11 -8 21 0 15 -27 40
-115 109 -28 22 -109 72 -117 72 -4 0 -8 8 -8 18 0 10 -16 25 -40 36 -22 11
-40 23 -40 28 0 4 -6 8 -13 8 -7 0 -24 10 -37 22 -14 13 -27 23 -30 23 -22 2
-80 31 -80 41 0 6 -7 14 -15 18 -8 3 -15 12 -15 20 0 8 -11 23 -25 34 -14 11
-25 24 -25 28 0 5 -12 20 -25 33 -14 13 -25 30 -25 38 0 32 -40 100 -67 113
-28 15 -46 28 -86 66 -12 11 -38 31 -57 44 -19 13 -40 31 -47 40 -6 9 -30 22
-52 30 -23 7 -41 18 -41 25 0 15 -86 45 -135 46 -54 1 -97 28 -107 67 -5 18
-15 32 -23 32 -8 0 -21 12 -30 28 -8 15 -36 46 -62 69 -27 24 -77 70 -112 103
-35 33 -70 60 -77 60 -8 0 -14 6 -14 14 0 19 -44 46 -74 46 -15 0 -30 8 -36
20 -6 11 -20 20 -30 20 -11 0 -20 7 -20 15 0 8 -14 17 -36 21 -19 4 -38 13
-41 20 -3 8 -23 19 -44 24 -21 6 -39 15 -39 20 0 6 -7 10 -15 10 -8 0 -15 6
-15 13 0 7 -16 32 -36 55 -19 23 -30 42 -24 42 8 0 9 21 4 73 -6 64 -10 76
-41 108 -35 37 -81 53 -123 42 -20 -5 -21 -11 -18 -102 3 -86 1 -98 -18 -118
-26 -28 -34 -29 -34 -3 0 17 -7 20 -38 20 -41 0 -54 11 -102 83 -14 20 -32 37
-41 37 -9 0 -22 7 -29 15 -7 9 -19 14 -26 11 -8 -3 -18 3 -24 13 -5 10 -21 22
-35 25 -14 4 -25 14 -25 22 0 9 -18 34 -40 55 -22 22 -40 45 -40 51 0 15 -131
88 -155 88 -9 0 -30 8 -48 17 -18 9 -36 18 -42 19 -5 1 -43 20 -82 42 -40 22
-73 36 -73 30 0 -17 -28 11 -36 35 -11 33 -28 45 -77 52 -26 4 -47 12 -47 19
0 13 -86 46 -122 46 -36 0 -78 23 -78 42 0 10 -9 23 -20 30 -11 7 -20 24 -20
37 0 14 -10 35 -22 48 -12 13 -17 23 -11 23 6 0 10 7 9 15 -3 20 -36 55 -53
55 -8 0 -12 4 -9 9 8 12 -40 54 -66 58 -12 2 -25 9 -29 15 -4 6 -22 11 -40 10
-22 0 -39 6 -51 21 l-19 21 -6 -22 c-3 -13 -13 -22 -24 -22 -11 0 -19 -4 -19
-10 0 -27 -81 -3 -108 32 -7 10 -32 23 -55 30 -56 16 -140 62 -152 84 -23 39
-73 81 -87 73 -10 -7 -10 -9 2 -9 13 -1 13 -2 0 -9 -8 -5 -25 -12 -37 -15 -19
-6 -23 -4 -23 17 0 16 -9 28 -27 38 -16 8 -31 18 -35 24 -5 7 -11 6 -15 -1 -5
-5 -24 -15 -43 -20 -29 -8 -36 -15 -38 -39 -2 -17 -7 -32 -11 -35 -5 -3 -11
-17 -14 -32 -6 -21 -3 -28 13 -33 11 -4 18 -10 16 -14 -3 -4 6 -20 20 -36 13
-15 24 -32 24 -37 0 -4 7 -8 15 -8 10 0 15 -10 15 -29 0 -25 -4 -29 -37 -34
-20 -4 -40 -2 -43 3 -6 9 -88 39 -129 47 -14 2 -28 8 -29 14 -6 17 -30 9 -59
-18 -29 -29 -38 -33 -82 -36 -26 -2 -26 -3 -23 -69 l4 -67 -38 -6 c-22 -3 -62
-11 -90 -17 -43 -9 -65 -7 -143 11 -85 20 -94 21 -136 6 -34 -11 -60 -13 -105
-6 -45 6 -65 4 -78 -5 -9 -7 -24 -14 -33 -14 -25 0 -51 -63 -43 -105 3 -19 10
-38 15 -41 5 -3 9 -20 9 -39 0 -19 4 -37 10 -40 5 -3 14 -24 20 -47 7 -26 18
-42 31 -45 14 -4 19 -14 19 -42 0 -20 5 -42 12 -49 9 -9 5 -12 -17 -12 -21 0
-26 3 -16 9 11 7 9 14 -12 35 -14 14 -35 26 -45 26 -10 0 -27 9 -37 20 -10 11
-36 23 -57 26 -21 4 -38 11 -38 15 0 5 -11 15 -25 21 -14 6 -25 19 -25 29 0
25 -14 31 -78 35 -31 2 -58 8 -60 14 -2 5 -10 10 -17 10 -17 0 -115 89 -115
105 0 7 -7 18 -15 25 -8 7 -12 16 -9 21 3 5 2 9 -3 9 -4 0 -7 20 -5 45 3 26 0
45 -6 45 -20 0 -42 -12 -42 -24 0 -6 -8 -18 -18 -26 -53 -44 -49 -43 -112 -29
-33 7 -60 17 -60 21 0 4 -16 8 -35 8 -39 0 -52 9 -140 95 -34 33 -80 71 -103
85 -23 13 -42 29 -42 35 0 6 -12 15 -27 21 -43 17 -128 84 -153 122 -13 18
-41 42 -62 53 -27 14 -44 33 -59 64 -13 27 -28 45 -38 45 -9 0 -27 18 -41 40
-17 28 -32 40 -48 40 -13 0 -20 4 -17 10 7 12 -19 53 -28 43z m1813 -1193 c12
-8 9 -10 -12 -10 -16 0 -28 5 -28 10 0 13 20 13 40 0z"/>
<path d="M10268 3463 c7 -3 16 -2 19 1 4 3 -2 6 -13 5 -11 0 -14 -3 -6 -6z"/>
<path d="M10347 3443 c-3 -16 0 -34 6 -42 9 -11 9 -15 0 -18 -7 -3 -13 -9 -13
-14 0 -13 56 1 106 26 l43 22 -31 29 -32 29 18 -28 c21 -35 12 -50 -10 -18 -9
12 -22 20 -30 17 -8 -3 -14 1 -14 9 0 28 -37 17 -43 -12z"/>
<path d="M10106 3413 c-4 -5 -13 -8 -19 -8 -7 0 -12 -14 -12 -33 1 -36 -10
-40 -43 -16 -22 15 -67 11 -57 -6 7 -11 -7 -20 -39 -22 -19 -2 -29 -10 -32
-25 -8 -29 13 -55 40 -51 16 2 21 -2 20 -19 -1 -25 18 -30 35 -10 6 8 36 19
66 26 30 7 55 16 55 21 0 4 21 13 47 19 25 7 54 18 64 25 17 11 17 14 3 35
-11 15 -22 20 -35 16 -13 -4 -19 -2 -19 8 0 30 -54 59 -74 40z m-106 -153 c0
-5 -4 -10 -10 -10 -5 0 -10 5 -10 10 0 6 5 10 10 10 6 0 10 -4 10 -10z"/>
<path d="M10270 3339 c0 -5 5 -7 10 -4 6 3 10 8 10 11 0 2 -4 4 -10 4 -5 0
-10 -5 -10 -11z"/>
<path d="M10315 3070 c-3 -5 -2 -10 4 -10 5 0 13 5 16 10 3 6 2 10 -4 10 -5 0
-13 -4 -16 -10z"/>
<path d="M11070 1345 c0 -33 22 -115 32 -115 9 0 2 104 -9 123 -7 12 -23 8
-23 -8z"/>
<path d="M11115 1320 c-3 -5 1 -10 9 -10 9 0 16 5 16 10 0 6 -4 10 -9 10 -6 0
-13 -4 -16 -10z"/>
<path d="M11160 1270 c0 -11 6 -20 14 -20 9 0 12 7 9 20 -3 11 -9 20 -14 20
-5 0 -9 -9 -9 -20z"/>
<path d="M11075 1130 c3 -5 8 -10 11 -10 2 0 4 5 4 10 0 6 -5 10 -11 10 -5 0
-7 -4 -4 -10z"/>
<path d="M14830 908 c0 -6 -7 -20 -16 -30 -14 -15 -15 -20 -3 -35 9 -11 10
-14 2 -9 -9 5 -13 1 -13 -12 0 -33 -42 -44 -109 -28 -75 17 -119 5 -151 -41
-25 -37 -27 -37 -32 -8 -1 11 -12 26 -22 34 -16 12 -20 12 -30 0 -27 -34 -68
-51 -114 -46 -37 4 -45 2 -49 -13 -3 -11 -17 -20 -36 -23 -42 -6 -117 4 -117
15 0 6 13 7 31 3 22 -5 29 -4 25 4 -4 6 -14 11 -23 11 -13 0 -13 3 -2 16 10
13 10 17 -2 24 -8 6 -18 5 -23 0 -16 -16 -55 -11 -76 10 -28 28 -78 26 -112
-4 -16 -13 -28 -28 -28 -34 0 -16 39 -35 61 -29 10 3 22 1 25 -4 8 -14 44 -10
44 5 0 20 26 27 40 11 9 -11 6 -16 -12 -26 -13 -7 -38 -21 -56 -31 -21 -11
-42 -16 -57 -12 -33 8 -78 -3 -69 -17 4 -8 9 -7 15 2 4 7 11 10 15 6 24 -24
-103 -51 -130 -28 -8 7 -20 11 -28 10 -35 -4 -56 3 -68 26 -7 14 -22 25 -32
25 -10 0 -18 5 -18 10 0 20 -39 9 -60 -17 -20 -26 -21 -37 -5 -75 6 -16 1 -18
-48 -18 -31 0 -59 5 -62 10 -3 6 -1 10 4 10 6 0 11 5 11 10 0 17 -21 11 -40
-12 -16 -20 -22 -21 -39 -11 -27 17 -31 16 -31 -2 0 -8 -9 -15 -20 -15 -11 0
-27 -11 -36 -25 -9 -14 -20 -23 -24 -20 -5 3 -15 -4 -23 -15 -8 -11 -21 -18
-29 -15 -8 3 -22 -3 -31 -13 -14 -15 -25 -17 -69 -11 -29 3 -54 6 -55 5 -2 -2
6 -12 17 -24 11 -12 20 -25 20 -29 0 -11 -62 -34 -69 -26 -3 3 0 8 7 10 6 3
12 12 12 20 0 10 -6 13 -17 9 -9 -4 -20 -1 -25 6 -12 19 -10 28 7 28 19 0 19
24 1 40 -8 6 -12 18 -9 26 7 19 -21 18 -37 0 -6 -8 -19 -12 -28 -9 -11 3 -13
2 -6 -4 6 -4 9 -24 7 -43 -5 -38 -37 -89 -49 -77 -14 13 -5 69 13 82 14 11 16
16 6 26 -10 10 -13 10 -13 0 0 -15 -93 -111 -108 -111 -5 0 -12 6 -15 13 -3 9
-17 12 -43 9 -34 -4 -36 -6 -16 -13 24 -9 27 -21 12 -50 -12 -22 -30 -25 -30
-5 0 22 -19 29 -37 15 -13 -11 -17 -10 -29 6 -12 16 -18 18 -34 7 -10 -6 -25
-9 -32 -7 -13 5 -68 -36 -68 -51 -1 -9 -46 -64 -53 -64 -2 0 -4 16 -5 35 -1
20 -6 43 -11 53 -7 12 -5 22 6 34 13 15 13 16 -4 13 -10 -2 -27 -4 -38 -5 -11
0 -29 -7 -39 -15 -15 -11 -16 -18 -8 -28 17 -20 -31 -46 -51 -28 -12 9 -16 7
-20 -9 -6 -22 -27 -28 -27 -7 0 8 9 25 21 38 14 16 17 25 8 28 -7 2 -21 -6
-31 -19 l-18 -22 0 26 c0 16 -4 25 -10 21 -5 -3 -10 -19 -10 -36 0 -32 -3 -34
-30 -19 -11 6 -17 17 -14 24 7 18 -8 27 -26 16 -11 -7 -11 -11 -1 -23 7 -9 8
-18 2 -21 -12 -8 -41 3 -41 15 0 12 -37 11 -45 -1 -11 -18 -23 -10 -17 12 3
14 2 19 -6 14 -7 -4 -12 -14 -12 -22 0 -8 -7 -14 -15 -14 -8 0 -15 -4 -15 -10
0 -23 -19 -8 -25 20 -7 33 -16 37 -35 15 -17 -20 -24 -19 -58 10 -37 31 -44
31 -36 0 5 -22 2 -26 -25 -31 -27 -6 -31 -11 -31 -37 0 -31 0 -31 -16 -9 -8
12 -12 27 -9 32 3 6 2 10 -4 10 -5 0 -11 -6 -14 -12 -4 -10 -7 -10 -18 0 -20
19 -29 15 -29 -14 0 -14 -4 -23 -10 -19 -5 3 -10 15 -10 26 0 24 -27 25 -33 1
-3 -9 -5 0 -6 21 -1 43 -13 48 -29 12 -12 -25 -32 -34 -32 -14 0 5 -5 7 -11 4
-6 -4 -9 0 -7 10 6 33 -19 26 -26 -6 -7 -35 -18 -33 -21 3 -2 22 -25 39 -25
19 0 -18 -39 -12 -60 9 -11 11 -20 25 -20 30 0 6 -9 10 -20 10 -11 0 -20 5
-20 10 0 6 -6 10 -12 9 -29 -3 -38 2 -39 24 0 12 -3 17 -5 10 -6 -15 -44 20
-44 41 0 7 -9 16 -20 19 -16 4 -20 0 -20 -21 l0 -25 -25 23 c-14 13 -25 29
-25 37 0 16 -12 17 -28 1 -8 -8 -14 -4 -23 16 -18 39 -34 26 -34 -26 l0 -46
-40 3 c-22 2 -44 4 -50 5 -5 0 -4 4 3 9 14 8 11 19 -27 101 l-16 35 -3 -33
c-2 -19 0 -41 4 -50 3 -10 8 -39 9 -67 1 -27 4 -57 6 -65 2 -8 -3 -15 -11 -15
-17 0 -32 -61 -20 -85 4 -8 14 -28 21 -43 7 -16 18 -26 26 -23 15 6 14 7 17
-54 l1 -45 -27 30 -27 30 -1 -32 c0 -23 -5 -33 -15 -33 -9 0 -15 10 -15 26 0
14 -4 23 -10 19 -5 -3 -10 -39 -11 -78 -1 -59 -3 -66 -9 -38 -4 18 -12 36 -18
40 -14 10 -32 48 -32 70 0 12 -4 21 -8 21 -10 0 -9 121 1 137 4 7 0 16 -9 21
-11 6 -15 17 -11 31 3 11 1 24 -5 27 -6 4 -8 -27 -4 -87 4 -77 2 -97 -11 -111
-9 -10 -11 -18 -5 -18 5 0 8 -9 5 -20 -5 -20 -25 -18 -22 3 1 7 1 19 0 27 -1
12 -3 13 -10 1 -7 -11 -10 -9 -16 8 -4 12 -12 20 -18 18 -21 -7 -18 -27 7 -50
15 -14 26 -35 26 -50 0 -14 5 -29 10 -32 13 -8 13 -62 -1 -67 -5 -2 -7 -11 -4
-21 7 -16 121 -17 2031 -17 l2024 0 0 454 c0 394 -2 455 -15 460 -8 3 -15 0
-15 -6z m-143 -170 c-3 -8 -6 -5 -6 6 -1 11 2 17 5 13 3 -3 4 -12 1 -19z
m-3567 -289 c0 -4 -6 -6 -14 -3 -18 7 -10 -44 11 -68 16 -18 2 -34 -22 -24
-18 7 -20 -5 -3 -22 6 -6 12 -22 14 -34 1 -13 6 -38 12 -55 10 -31 1 -46 -14
-22 -11 19 -24 -13 -12 -34 10 -20 5 -33 -10 -23 -12 7 -14 84 -1 91 6 4 7 11
1 18 -10 12 -52 158 -52 180 0 8 14 11 45 9 25 -2 45 -8 45 -13z m155 -9 c3
-5 2 -10 -4 -10 -5 0 -13 5 -16 10 -3 6 -2 10 4 10 5 0 13 -4 16 -10z m1905
-20 c0 -11 -7 -20 -15 -20 -13 0 -14 4 -5 20 6 11 13 20 15 20 3 0 5 -9 5 -20z
m-1843 -27 c-3 -10 -5 -4 -5 12 0 17 2 24 5 18 2 -7 2 -21 0 -30z m46 1 c3 -3
3 -13 0 -21 -5 -12 -7 -12 -14 -1 -15 23 -4 40 14 22z m-58 -44 c5 -17 4 -22
-3 -15 -5 6 -13 21 -17 35 -5 17 -4 22 3 15 5 -5 13 -21 17 -35z m1111 3 c16
-21 18 -73 4 -73 -5 0 -10 9 -10 19 0 11 -4 23 -10 26 -11 7 -14 45 -4 45 4 0
13 -8 20 -17z m-999 -25 c-3 -7 -5 -2 -5 12 0 14 2 19 5 13 2 -7 2 -19 0 -25z
m-402 -19 c-6 -49 -21 -55 -21 -9 0 25 5 40 13 40 8 0 11 -11 8 -31z m877 6
c0 -5 -5 -11 -11 -13 -6 -2 -11 4 -11 13 0 9 5 15 11 13 6 -2 11 -8 11 -13z
m743 -15 c3 -5 1 -10 -4 -10 -6 0 -11 5 -11 10 0 6 2 10 4 10 3 0 8 -4 11 -10z
m-785 -15 c0 -8 -4 -15 -10 -15 -5 0 -10 7 -10 15 0 8 5 15 10 15 6 0 10 -7
10 -15z m379 -7 c12 -15 11 -18 -3 -18 -10 0 -16 8 -16 22 0 12 1 19 3 17 1
-2 9 -12 16 -21z m311 1 c0 -4 -7 -6 -15 -3 -8 4 -15 10 -15 15 0 4 7 6 15 3
8 -4 15 -10 15 -15z m-627 -38 c-6 -8 -31 34 -26 42 3 5 11 -2 17 -15 7 -12
11 -25 9 -27z m435 32 c-2 -10 -11 -19 -21 -21 -16 -3 -17 -1 -5 17 16 25 31
27 26 4z m-308 -3 c0 -5 -2 -10 -4 -10 -3 0 -8 5 -11 10 -3 6 -1 10 4 10 6 0
11 -4 11 -10z m-625 -19 c3 -5 1 -12 -5 -16 -5 -3 -10 1 -10 9 0 18 6 21 15 7z
m195 -1 c0 -5 -4 -10 -10 -10 -5 0 -10 5 -10 10 0 6 5 10 10 10 6 0 10 -4 10
-10z m10 -34 c0 -3 -4 -8 -10 -11 -5 -3 -10 -1 -10 4 0 6 5 11 10 11 6 0 10
-2 10 -4z m-244 -33 c-10 -10 -19 5 -10 18 6 11 8 11 12 0 2 -7 1 -15 -2 -18z
m-535 -36 c-8 -8 -11 -3 -11 19 1 25 2 27 11 11 8 -14 8 -22 0 -30z m137 -44
c-4 -22 -22 -20 -26 1 -2 10 3 16 13 16 10 0 15 -7 13 -17z m-118 -43 c0 -5
-4 -10 -10 -10 -5 0 -10 5 -10 10 0 6 5 10 10 10 6 0 10 -4 10 -10z m0 -30 c0
-5 -4 -10 -10 -10 -5 0 -10 5 -10 10 0 6 5 10 10 10 6 0 10 -4 10 -10z"/>
<path d="M13820 745 c-11 -13 -11 -19 2 -31 21 -22 42 3 23 29 -11 15 -14 16
-25 2z"/>
<path d="M10890 600 c0 -5 5 -10 10 -10 6 0 10 5 10 10 0 6 -4 10 -10 10 -5 0
-10 -4 -10 -10z"/>
<path d="M13131 567 c-6 -8 -8 -17 -4 -20 7 -8 33 11 33 24 0 13 -16 11 -29
-4z"/>
<path d="M10900 560 c0 -5 5 -10 10 -10 6 0 10 5 10 10 0 6 -4 10 -10 10 -5 0
-10 -4 -10 -10z"/>
<path d="M10880 519 c11 -36 20 -49 20 -28 0 25 -12 59 -20 59 -5 0 -5 -14 0
-31z"/>
<path d="M10966 516 c3 -9 11 -16 16 -16 13 0 5 23 -10 28 -7 2 -10 -2 -6 -12z"/>
<path d="M12828 488 c-33 -12 -39 -47 -8 -49 11 -1 26 -2 32 -3 13 -1 22 51
10 57 -4 3 -19 0 -34 -5z"/>
<path d="M10690 454 c0 -8 5 -12 10 -9 6 3 10 10 10 16 0 5 -4 9 -10 9 -5 0
-10 -7 -10 -16z"/>
<path d="M10650 406 c0 -13 6 -28 13 -34 9 -8 12 -2 13 24 0 22 -4 34 -13 34
-7 0 -13 -11 -13 -24z"/>
<path d="M12437 424 c-8 -8 1 -24 14 -24 5 0 9 7 9 15 0 15 -12 20 -23 9z"/>
<path d="M11490 375 c0 -8 5 -15 10 -15 6 0 10 7 10 15 0 8 -4 15 -10 15 -5 0
-10 -7 -10 -15z"/>
<path d="M12524 379 c-3 -6 0 -15 7 -20 13 -7 28 5 29 24 0 11 -28 8 -36 -4z"/>
<path d="M11930 366 c0 -9 7 -16 16 -16 9 0 14 5 12 12 -6 18 -28 21 -28 4z"/>
<path d="M12500 330 c0 -5 5 -10 10 -10 6 0 10 5 10 10 0 6 -4 10 -10 10 -5 0
-10 -4 -10 -10z"/>
<path d="M10692 147 c1 -34 -2 -81 -6 -105 l-8 -42 50 0 c45 0 50 2 45 20 -4
14 0 20 11 20 17 0 19 11 10 48 -4 12 -13 22 -21 22 -8 0 -11 4 -8 10 3 6 -1
7 -10 4 -9 -4 -13 -13 -10 -23 2 -9 1 -29 -3 -46 -8 -30 -9 -30 -14 -5 -3 14
-5 50 -4 81 1 44 -2 59 -15 68 -16 9 -17 4 -17 -52z"/>
<path d="M10750 155 c0 -8 5 -15 10 -15 6 0 10 7 10 15 0 8 -4 15 -10 15 -5 0
-10 -7 -10 -15z"/>
<path d="M10635 130 c-7 -12 2 -30 16 -30 5 0 9 9 9 20 0 21 -15 27 -25 10z"/>
<path d="M10625 77 c-2 -6 -5 -27 -8 -44 -3 -29 -1 -33 19 -33 22 0 34 26 26
62 -4 20 -31 32 -37 15z"/>
<path d="M10320 47 c0 -9 -3 -22 -6 -31 -4 -12 0 -16 15 -16 25 0 28 25 6 46
-13 14 -15 14 -15 1z"/>
<path d="M10525 50 c-3 -5 -2 -10 3 -10 6 0 8 -9 5 -20 -5 -17 0 -20 31 -20
20 0 36 5 36 10 0 6 -7 10 -15 10 -8 0 -19 9 -25 20 -12 22 -25 26 -35 10z"/>
<path d="M10488 25 c-4 -20 -1 -25 14 -25 14 0 18 5 14 16 -3 9 -6 20 -6 25 0
20 -18 7 -22 -16z"/>
<path d="M10398 33 c-10 -2 -18 -11 -18 -19 0 -10 13 -14 45 -14 43 0 45 1 35
20 -10 19 -26 23 -62 13z"/>
</g>
</svg>
